<?xml version="1.0" encoding="utf-8"?>
<!-- Generator: Adobe Illustrator 21.1.0, SVG Export Plug-In . SVG Version: 6.00 Build 0)  -->
<svg version="1.1" id="Слой_1" xmlns="http://www.w3.org/2000/svg" xmlns:xlink="http://www.w3.org/1999/xlink" x="0px" y="0px"
	 viewBox="0 0 881 418" style="enable-background:new 0 0 881 418;" xml:space="preserve">
<style type="text/css">
	.st0{fill:#FFFFFF;}
	.st1{fill:#316293;stroke:#316293;stroke-width:2;stroke-miterlimit:10;}
	.st2{fill:#DAE4F7;}
	.st3{font-family:'Roboto-Medium';}
	.st4{font-size:12px;}
	.st5{font-family:'Roboto-Black';}
	.st6{fill:#ADC3F7;}
	.st7{font-size:11px;}
	.st8{fill:#B01841;}
	.st9{fill:#6E6E6E;}
	.st10{font-size:17px;}
	.st11{fill:#7A7A7A;}
	.st12{font-size:10px;}
	.st13{fill:#F2F4F9;stroke:#F2F4F9;stroke-width:2;stroke-miterlimit:10;}
	.st14{font-size:13px;}
	.st15{opacity:0.11;}
	.st16{fill:none;stroke:#CECECE;stroke-width:4;stroke-miterlimit:10;}
	.st17{fill:#6E6E6E;stroke:#CECECE;stroke-width:6;stroke-miterlimit:10;}
</style>
<rect x="-2" y="2" class="st0" width="1059" height="416"/>
<rect x="294.7" y="57.8" class="st1" width="36.3" height="36.3"/>
<text transform="matrix(1 0 0 1 38.0026 203.7861)"><tspan x="0" y="0" class="st2 st3 st4">Робототехніка </tspan><tspan x="85.7" y="0" class="st2 st5 st4">в</tspan><tspan x="92.4" y="0" class="st6 st5 st4"> №23</tspan><tspan x="122.4" y="0" class="st6 st3 st4"> </tspan><tspan x="125.4" y="0" class="st2 st3 st4">«Кадетський корпус»</tspan></text>
<text transform="matrix(1 0 0 1 64.0026 225.0098)"><tspan x="0" y="0" class="st2 st3 st7">Робототехніка у гімназії</tspan><tspan x="126.1" y="0" class="st6 st3 st7"> </tspan><tspan x="128.9" y="0" class="st6 st5 st7">№ 172 &quot;Нивки&quot; </tspan></text>
<text transform="matrix(1 0 0 1 92.0026 167.6288)"><tspan x="0" y="0" class="st2 st3 st4">Робототехніка в школу</tspan><tspan x="131.3" y="0" class="st6 st3 st4"> </tspan><tspan x="134.3" y="0" class="st6 st5 st4">№24 </tspan><tspan x="164.3" y="0" class="st6 st3 st4"> </tspan></text>
<text transform="matrix(1 0 0 1 127.0026 183.371)"><tspan x="0" y="0" class="st2 st3 st7">Робототехніка у школі </tspan><tspan x="119.7" y="0" class="st6 st5 st7">№139  </tspan></text>
<g>
	<g>
		<g>
			<path class="st8" d="M167.2,202.5c1.8,0,3.2-1.4,3.2-3.2l0-1.6"/>
		</g>
	</g>
</g>
<g>
	<g>
		<g>
			<path class="st8" d="M170.4,197.7"/>
		</g>
	</g>
</g>
<text transform="matrix(1 0 0 1 38.0026 65.0098)"><tspan x="0" y="0" class="st2 st3 st7">Робототехніка</tspan><tspan x="75.8" y="0" class="st6 st3 st7"> </tspan><tspan x="78.5" y="0" class="st6 st5 st7">в</tspan><tspan x="84.7" y="0" class="st6 st3 st7"> </tspan><tspan x="87.4" y="0" class="st6 st5 st7">школі-садочку &quot;Кияночка&quot; </tspan></text>
<text transform="matrix(1 0 0 1 34.0026 117.0098)"><tspan x="0" y="0" class="st2 st3 st7">Робототехніка </tspan><tspan x="78.5" y="0" class="st2 st5 st7">в</tspan><tspan x="84.7" y="0" class="st6 st5 st7"> гімназію НПУ ім. Драгоманов </tspan></text>
<text transform="matrix(1 0 0 1 129.0026 147.371)"><tspan x="0" y="0" class="st2 st3 st7">Робототехніка в школі</tspan><tspan x="117.6" y="0" class="st2 st5 st7"> </tspan><tspan x="120.4" y="0" class="st6 st5 st7">№163 </tspan></text>
<text transform="matrix(1 0 0 1 67.0026 100.371)"><tspan x="0" y="0" class="st2 st3 st4">Робототехника у школі</tspan><tspan x="131.3" y="0" class="st6 st3 st4"> </tspan><tspan x="134.3" y="0" class="st6 st5 st4">№169 </tspan></text>
<text transform="matrix(1 0 0 1 134.0026 82.371)"><tspan x="0" y="0" class="st2 st3 st4">Робототехніка у школі</tspan><tspan x="127.6" y="0" class="st6 st3 st4"> </tspan><tspan x="130.6" y="0" class="st6 st5 st4">№97</tspan></text>
<text transform="matrix(1 0 0 1 64.0026 244.371)"><tspan x="0" y="0" class="st2 st3 st4">Робототехніка в гімназію </tspan><tspan x="147.9" y="0" class="st6 st5 st4">№153</tspan></text>
<text transform="matrix(1 0 0 1 82.0026 132.371)"><tspan x="0" y="0" class="st2 st3 st4">Ліцейський бал </tspan><tspan x="90.9" y="0" class="st6 st3 st4">                  </tspan></text>
<text transform="matrix(1 0 0 1 15.0026 266.371)"><tspan x="0" y="0" class="st2 st3 st7">Спортивне обладнання стадіону</tspan><tspan x="168.7" y="0" class="st6 st3 st7"> в </tspan><tspan x="180.5" y="0" class="st6 st5 st7">школі №28</tspan></text>
<text transform="matrix(1 0 0 1 592.0026 203.371)"><tspan x="0" y="0" class="st2 st3 st7">Громадський бюджет діти в </tspan><tspan x="151.1" y="0" class="st6 st5 st7">№23</tspan><tspan x="175.8" y="0" class="st6 st3 st7"> </tspan><tspan x="0" y="13.2" class="st2 st3 st7">«Кадетський корпус»</tspan></text>
<text transform="matrix(1 0 0 1 591.0026 57.371)"><tspan x="0" y="0" class="st2 st3 st4">Громадський бюджет діти </tspan><tspan x="155" y="0" class="st6 st5 st4">у школі-садочку</tspan><tspan x="0" y="14.4" class="st6 st5 st4"> &quot;Кияночка&quot; </tspan></text>
<text transform="matrix(1 0 0 1 631.0026 117.371)"><tspan x="0" y="0" class="st2 st3 st7">Громадський бюджет діти в</tspan><tspan x="148.3" y="0" class="st2 st5 st7"> </tspan><tspan x="151.1" y="0" class="st6 st5 st7">гімназії НПУ</tspan><tspan x="0" y="13.2" class="st6 st5 st7"> імені М.П. Драгоманова </tspan></text>
<text transform="matrix(1 0 0 1 598.0027 167.371)"><tspan x="0" y="0" class="st2 st3 st7">Громадський бюджет діти</tspan><tspan x="139.4" y="0" class="st6 st3 st7"> у школі </tspan><tspan x="183.3" y="0" class="st6 st5 st7">№24 </tspan></text>
<text transform="matrix(1 0 0 1 632.0026 183.371)"><tspan x="0" y="0" class="st2 st3 st4">Громадський бюджет діти  </tspan><tspan x="158" y="0" class="st6 st3 st4">у школі </tspan><tspan x="203" y="0" class="st6 st5 st4">№139 </tspan></text>
<text transform="matrix(1 0 0 1 586.0026 101.371)"><tspan x="0" y="0" class="st6 st3 st4">Громадський бюджет діти діти у школі </tspan><tspan x="226.5" y="0" class="st6 st5 st4">№169</tspan><tspan x="260.5" y="0" class="st6 st3 st4"> </tspan></text>
<text transform="matrix(1 0 0 1 642.0026 86.371)"><tspan x="0" y="0" class="st2 st3 st7">Громадський бюджет діти у школі</tspan><tspan x="180.6" y="0" class="st6 st3 st7"> </tspan><tspan x="183.3" y="0" class="st6 st5 st7">№97</tspan></text>
<text transform="matrix(1 0 0 1 591.0026 147.371)"><tspan x="0" y="0" class="st2 st3 st4">Громадський бюджет  діти  </tspan><tspan x="161" y="0" class="st6 st3 st4">в школі </tspan><tspan x="206.7" y="0" class="st6 st5 st4">№163</tspan><tspan x="0" y="14.4" class="st2 st3 st4"> </tspan></text>
<text transform="matrix(1 0 0 1 634.0026 228.371)"><tspan x="0" y="0" class="st6 st3 st4">Громадський бюджет діти  у школі</tspan><tspan x="200" y="0" class="st6 st5 st4"> №57 </tspan></text>
<text transform="matrix(1 0 0 1 648.0026 261.371)"><tspan x="0" y="0" class="st2 st3 st4">Робототехніка у </tspan><tspan x="94.7" y="0" class="st2 st5 st4">школі </tspan><tspan x="131.4" y="0" class="st6 st5 st4">№101</tspan></text>
<text transform="matrix(1 0 0 1 588.0026 277.371)"><tspan x="0" y="0" class="st2 st3 st7">Громадський бюджет діти у </tspan><tspan x="150.4" y="0" class="st6 st5 st7">школі № 70</tspan><tspan x="0" y="13.2" class="st2 st3 st7"> </tspan></text>
<text transform="matrix(1 0 0 1 234 28)" class="st9 st3 st10">Проекти-переможці в Шевченківському районі </text>
<text transform="matrix(1 0 0 1 717 397)" class="st11 st3 st12">Дані: https://gb.kyivcity.gov.ua</text>
<rect x="341.7" y="57.8" class="st1" width="36.3" height="36.3"/>
<rect x="392.7" y="57.8" class="st1" width="36.3" height="36.3"/>
<rect x="442.7" y="57.8" class="st1" width="36.3" height="36.3"/>
<rect x="492.7" y="57.8" class="st1" width="36.3" height="36.3"/>
<rect x="542.7" y="57.8" class="st1" width="36.3" height="36.3"/>
<rect x="294.7" y="154.8" class="st1" width="36.3" height="36.3"/>
<rect x="342.7" y="154.8" class="st1" width="36.3" height="36.3"/>
<rect x="392.7" y="154.8" class="st1" width="36.3" height="36.3"/>
<rect x="442.7" y="154.8" class="st1" width="36.3" height="36.3"/>
<rect x="294.7" y="104.8" class="st1" width="36.3" height="36.3"/>
<rect x="342.7" y="105.8" class="st1" width="36.3" height="36.3"/>
<rect x="392.7" y="105.8" class="st1" width="36.3" height="36.3"/>
<rect x="442.7" y="105.8" class="st1" width="36.3" height="36.3"/>
<rect x="492.7" y="105.8" class="st1" width="36.3" height="36.3"/>
<rect x="542.7" y="105.8" class="st1" width="36.3" height="36.3"/>
<rect x="492.7" y="154.8" class="st1" width="36.3" height="36.3"/>
<rect x="542.7" y="154.8" class="st1" width="36.3" height="36.3"/>
<rect x="293.7" y="203.8" class="st1" width="36.3" height="36.3"/>
<rect x="341.7" y="203.8" class="st1" width="36.3" height="36.3"/>
<rect x="391.7" y="203.8" class="st1" width="36.3" height="36.3"/>
<rect x="441.7" y="203.8" class="st1" width="36.3" height="36.3"/>
<rect x="491.7" y="203.8" class="st1" width="36.3" height="36.3"/>
<rect x="541.7" y="203.8" class="st1" width="36.3" height="36.3"/>
<rect x="293.7" y="252.8" class="st1" width="36.3" height="36.3"/>
<rect x="341.7" y="252.8" class="st1" width="36.3" height="36.3"/>
<rect x="391.7" y="252.8" class="st1" width="36.3" height="36.3"/>
<rect x="441.7" y="252.8" class="st13" width="36.3" height="36.3"/>
<rect x="491.7" y="252.8" class="st13" width="36.3" height="36.3"/>
<rect x="541.7" y="252.8" class="st13" width="36.3" height="36.3"/>
<rect x="293.7" y="298.8" class="st13" width="36.3" height="36.3"/>
<rect x="341.7" y="298.8" class="st13" width="36.3" height="36.3"/>
<rect x="391.7" y="298.8" class="st13" width="36.3" height="36.3"/>
<rect x="441.7" y="298.8" class="st13" width="36.3" height="36.3"/>
<rect x="491.7" y="298.8" class="st13" width="36.3" height="36.3"/>
<rect x="541.7" y="298.8" class="st13" width="36.3" height="36.3"/>
<rect x="294.7" y="345.8" class="st13" width="36.3" height="36.3"/>
<rect x="342.7" y="345.8" class="st13" width="36.3" height="36.3"/>
<rect x="392.7" y="345.8" class="st13" width="36.3" height="36.3"/>
<rect x="442.7" y="345.8" class="st13" width="36.3" height="36.3"/>
<rect x="492.7" y="345.8" class="st13" width="36.3" height="36.3"/>
<rect x="542.7" y="345.8" class="st13" width="36.3" height="36.3"/>
<text transform="matrix(1 0 0 1 585.0026 243.0098)"><tspan x="0" y="0" class="st2 st3 st7">Громадський бюджет діти у гімназії </tspan><tspan x="192.4" y="0" class="st6 st3 st7"> </tspan><tspan x="195.2" y="0" class="st6 st5 st7">№ 172 &quot;Нивки&quot; </tspan></text>
<text transform="matrix(0.8454 0 0 1 639 325)"><tspan x="0" y="0" class="st9 st3 st14">З 42 проектів Шевченківського району,</tspan><tspan x="0" y="15.6" class="st9 st3 st14">27 проектів у співавторстві з </tspan><tspan x="182.8" y="15.6" class="st6 st3 st14">Бродським В.Я.</tspan></text>
<g class="st15">
	<path class="st16" d="M586.3,286.9c20.2,7.5,130.3,48.5,130.3,48.5"/>
	<polygon class="st17" points="588,287.4 595.2,287 593.2,292.5 	"/>
</g>
</svg>
